<svg width="72" height="72" viewBox="0 0 72 72" fill="none" xmlns="http://www.w3.org/2000/svg">
<rect width="72" height="72" rx="12" fill="white"/>
<path d="M56.0677 21.6674C56.0355 21.6674 56.0033 21.6835 55.971 21.7157H55.4391H15.0136C14.4333 21.7157 13.8933 21.8527 13.3937 22.1267C12.894 22.4008 12.483 22.7634 12.1606 23.2147C11.6126 24.0529 11.403 24.9717 11.532 25.971V48.2631C11.5642 48.8434 11.7415 49.3672 12.0639 49.8347C12.3862 50.3021 12.7731 50.6648 13.2244 50.9227C14.0303 51.374 14.9169 51.5352 15.884 51.4062V51.4546L56.648 51.4062C57.2283 51.374 57.7521 51.1967 58.2196 50.8743C58.687 50.5519 59.0497 50.1651 59.3076 49.7138C59.7589 48.9401 59.9201 48.0536 59.7911 47.0542H59.8395L59.7911 24.8588C59.7589 24.3108 59.5816 23.8031 59.2592 23.3356C58.9369 22.8682 58.55 22.4894 58.0987 22.1993C57.4862 21.8769 56.8092 21.6996 56.0677 21.6674ZM55.8743 23.9884H55.971C56.3579 23.9884 56.6803 24.069 56.9381 24.2302C57.1316 24.3269 57.2686 24.4317 57.3492 24.5445C57.4298 24.6574 57.4701 24.8105 57.4701 25.0039L57.5184 47.0542V47.1993C57.5829 47.7151 57.5023 48.1825 57.2766 48.6016C57.1799 48.7628 57.0752 48.8837 56.9623 48.9643C56.8495 49.0449 56.6964 49.0852 56.5029 49.0852L15.884 49.1335H15.7389C15.2231 49.198 14.7718 49.1174 14.385 48.8917C14.1915 48.795 14.0545 48.6902 13.9739 48.5774C13.8933 48.4646 13.853 48.3115 13.853 48.118V25.971L13.8047 25.7776C13.7402 25.3263 13.8289 24.9233 14.0706 24.5687C14.3124 24.2141 14.6106 24.0368 14.9652 24.0368H55.4391L55.8743 23.9884ZM18.4952 28.679V44.4913H23.1374V35.4004L27.7795 41.2031L32.4217 35.4004V44.4913H37.0639V28.679H32.4217L27.7795 34.4817L23.1374 28.679H18.4952ZM45.1877 28.679V36.8028H40.5455L47.5088 44.4913L54.472 36.8028H49.8298V28.679H45.1877Z" fill="black"/>
</svg>
