<svg width="72" height="72" viewBox="0 0 72 72" fill="none" xmlns="http://www.w3.org/2000/svg">
<g clip-path="url(#clip0_211_5)">
<rect width="72" height="72" rx="12" fill="#023430"/>
<path d="M55.125 0H16.875C7.55519 0 0 7.55519 0 16.875V55.125C0 64.4448 7.55519 72 16.875 72H55.125C64.4448 72 72 64.4448 72 55.125V16.875C72 7.55519 64.4448 0 55.125 0Z" fill="#023430"/>
<path d="M48.1424 30.26C45.1789 17.1871 39.0026 13.7069 37.4271 11.2468C36.7774 10.1631 36.2017 9.03653 35.7044 7.875C35.6212 9.03634 35.4682 9.76801 34.481 10.6487C32.499 12.4159 24.0811 19.2756 23.3727 34.1291C22.7126 47.9784 33.554 56.518 34.9861 57.4009C36.0875 57.9428 37.4288 57.4124 38.0832 56.9149C43.3091 53.3284 50.4495 43.7664 48.148 30.26" fill="#10AA50"/>
<path d="M36.1535 50.0262C35.8807 53.4541 35.6852 55.4459 34.9922 57.4048C34.9922 57.4048 35.447 60.6682 35.7665 64.125H36.8968C37.1665 61.6908 37.578 59.2743 38.1298 56.8879C36.6665 56.1679 36.2097 53.0342 36.1535 50.0262Z" fill="#B8C4C2"/>
<path d="M38.1278 56.8898C36.649 56.2067 36.2212 53.0069 36.1554 50.0262C36.521 45.1091 36.6276 40.1763 36.4749 35.2479C36.3973 32.6621 36.5115 11.2971 35.8379 8.16919C36.2989 9.2286 36.8296 10.2561 37.4272 11.2449C39.0028 13.7069 45.181 17.1871 48.1426 30.2599C50.4497 43.7434 43.3481 53.28 38.1278 56.8898Z" fill="#12924F"/>
</g>
<rect x="0.5" y="0.5" width="71" height="71" rx="11.5" stroke="#10AA50"/>
<defs>
<clipPath id="clip0_211_5">
<rect width="72" height="72" rx="12" fill="white"/>
</clipPath>
</defs>
</svg>
