<svg width="72" height="73" viewBox="0 0 72 73" fill="none" xmlns="http://www.w3.org/2000/svg">
<rect y="0.5" width="72" height="72" rx="16" fill="#242938"/>
<circle cx="36.5" cy="36.5" r="26.5" fill="white"/>
<path fill-rule="evenodd" clip-rule="evenodd" d="M36 9C21.0825 9 9 21.3881 9 36.6829C9 48.9326 16.7287 59.2791 27.4612 62.9471C28.8112 63.1893 29.3175 62.3589 29.3175 61.6322C29.3175 60.9747 29.2838 58.7947 29.2838 56.4762C22.5 57.7566 20.745 54.7807 20.205 53.2235C19.9012 52.4276 18.585 49.9707 17.4375 49.3133C16.4925 48.7942 15.1425 47.5139 17.4038 47.4793C19.53 47.4447 21.0488 49.4863 21.555 50.3168C23.985 54.5038 27.8663 53.3273 29.4188 52.6006C29.655 50.8012 30.3637 49.5901 31.14 48.898C25.1325 48.206 18.855 45.8183 18.855 35.2296C18.855 32.2191 19.9013 29.7276 21.6225 27.7898C21.3525 27.0977 20.4075 24.2602 21.8925 20.4538C21.8925 20.4538 24.1538 19.7271 29.3175 23.2913C31.4775 22.6684 33.7725 22.357 36.0675 22.357C38.3625 22.357 40.6575 22.6684 42.8175 23.2913C47.9813 19.6925 50.2425 20.4538 50.2425 20.4538C51.7275 24.2602 50.7825 27.0977 50.5125 27.7898C52.2338 29.7276 53.28 32.1845 53.28 35.2296C53.28 45.8529 46.9688 48.206 40.9613 48.898C41.94 49.7631 42.7838 51.4241 42.7838 54.0194C42.7838 57.722 42.75 60.6979 42.75 61.6322C42.75 62.3589 43.2563 63.2239 44.6063 62.9471C55.2713 59.2791 63 48.898 63 36.6829C63 21.3881 50.9175 9 36 9Z" fill="#1B1F23"/>
</svg>
