<svg width="97" height="97" viewBox="0 0 97 97" fill="none" xmlns="http://www.w3.org/2000/svg">
<rect x="13" y="13.5" width="72" height="72" rx="16" fill="#242938"/>
<circle cx="48.185" cy="49.3539" r="26.892" fill="white"/>
<path fill-rule="evenodd" clip-rule="evenodd" d="M48.2535 22.1465C33.2456 22.1465 21.0898 34.2431 21.0898 49.1781C21.0898 61.1395 28.8654 71.2426 39.663 74.8243C41.0212 75.0608 41.5305 74.2498 41.5305 73.5403C41.5305 72.8983 41.4965 70.7695 41.4965 68.5056C34.6717 69.7558 32.906 66.8499 32.3628 65.3294C32.0572 64.5523 30.7329 62.1532 29.5785 61.5112C28.6278 61.0044 27.2696 59.7542 29.5445 59.7204C31.6837 59.6866 33.2116 61.6802 33.7209 62.4911C36.1657 66.5796 40.0704 65.4308 41.6323 64.7212C41.87 62.9642 42.5831 61.7815 43.364 61.1057C37.3201 60.4299 31.0046 58.0985 31.0046 47.7589C31.0046 44.8192 32.0572 42.3864 33.7888 40.4942C33.5172 39.8184 32.5665 37.0476 34.0605 33.3308C34.0605 33.3308 36.3354 32.6212 41.5305 36.1015C43.7036 35.4933 46.0125 35.1892 48.3214 35.1892C50.6303 35.1892 52.9392 35.4933 55.1123 36.1015C60.3073 32.5874 62.5823 33.3308 62.5823 33.3308C64.0763 37.0476 63.1256 39.8184 62.8539 40.4942C64.5856 42.3864 65.6382 44.7854 65.6382 47.7589C65.6382 58.1323 59.2887 60.4299 53.2448 61.1057C54.2295 61.9505 55.0783 63.5724 55.0783 66.1066C55.0783 69.722 55.0444 72.6279 55.0444 73.5403C55.0444 74.2498 55.5537 75.0946 56.9119 74.8243C67.6415 71.2426 75.4171 61.1057 75.4171 49.1781C75.4171 34.2431 63.2614 22.1465 48.2535 22.1465Z" fill="#1B1F23"/>
</svg>
