<svg width="97" height="98" viewBox="0 0 97 98" fill="none" xmlns="http://www.w3.org/2000/svg">
<circle cx="48.185" cy="49.8539" r="26.892" fill="white"/>
<path fill-rule="evenodd" clip-rule="evenodd" d="M48.2535 22.6465C33.2456 22.6465 21.0898 34.7431 21.0898 49.6781C21.0898 61.6395 28.8654 71.7426 39.663 75.3243C41.0212 75.5608 41.5305 74.7498 41.5305 74.0403C41.5305 73.3983 41.4965 71.2695 41.4965 69.0056C34.6717 70.2558 32.906 67.3499 32.3628 65.8294C32.0572 65.0523 30.7329 62.6532 29.5785 62.0112C28.6278 61.5044 27.2696 60.2542 29.5445 60.2204C31.6837 60.1866 33.2116 62.1802 33.7209 62.9911C36.1657 67.0796 40.0704 65.9308 41.6323 65.2212C41.87 63.4642 42.5831 62.2815 43.364 61.6057C37.3201 60.9299 31.0046 58.5985 31.0046 48.2589C31.0046 45.3192 32.0572 42.8864 33.7888 40.9942C33.5172 40.3184 32.5665 37.5476 34.0605 33.8308C34.0605 33.8308 36.3354 33.1212 41.5305 36.6015C43.7036 35.9933 46.0125 35.6892 48.3214 35.6892C50.6303 35.6892 52.9392 35.9933 55.1123 36.6015C60.3073 33.0874 62.5823 33.8308 62.5823 33.8308C64.0763 37.5476 63.1256 40.3184 62.8539 40.9942C64.5856 42.8864 65.6382 45.2854 65.6382 48.2589C65.6382 58.6323 59.2887 60.9299 53.2448 61.6057C54.2295 62.4505 55.0783 64.0724 55.0783 66.6066C55.0783 70.222 55.0444 73.1279 55.0444 74.0403C55.0444 74.7498 55.5537 75.5946 56.9119 75.3243C67.6415 71.7426 75.4171 61.6057 75.4171 49.6781C75.4171 34.7431 63.2614 22.6465 48.2535 22.6465Z" fill="#1B1F23"/>
</svg>
