<svg width="72" height="72" viewBox="0 0 72 72" fill="none" xmlns="http://www.w3.org/2000/svg">
<rect width="72" height="72" rx="16" fill="#242938"/>
<path d="M14.499 54.499H22.6633V34.6713L11 25.9238V51C11 52.9361 12.5687 54.499 14.499 54.499Z" fill="#2196F3"/>
<path d="M50.6562 54.499H58.8206C60.7567 54.499 62.3196 52.9303 62.3196 51V25.9238L50.6562 34.6713" fill="#4CAF50"/>
<path d="M50.6562 19.5089V34.6713L62.3196 25.9238V21.2584C62.3196 16.9313 57.3802 14.4645 53.922 17.0596" fill="#FFC107"/>
<path d="M22.6641 34.6711V19.5088L36.6601 30.0058L50.6561 19.5088V34.6711L36.6601 45.1681" fill="#F44336"/>
<path d="M11 21.2584V25.9238L22.6633 34.6713V19.5089L19.3976 17.0596C15.9336 14.4645 11 16.9313 11 21.2584" fill="#C5221F" fill-opacity="0.91"/>
</svg>
